# xmcd
#
# Track frame offsets:
# 150
# 13145
# 30021
# 45433
# 59933
# 73401
# 86694
# 102712
# 114922
# 134181
# 148639
# 161274
# 173187
# 186375
# 199126
# 211156
# 225680
#
# Disc length: 3237 seconds
#
#
# Revision: 0
# Processed by: cddbd v1.5.1PL2 Copyright (c) Steve Scherf et al.
# Submitted via: FreeRIP 2.944 
#
DISCID=fc0ca311
DTITLE=Terceira Dimensão - O Melhor
DYEAR=1900
DGENRE=gauchesco
TTITLE0=meu amor
TTITLE1=vou pra santa catarina
TTITLE2=na cor dos olhos seus
TTITLE3=escravo do amor
TTITLE4=caminhoneiro apaixonado
TTITLE5=casar não é comigo
TTITLE6=na hora do adeus
TTITLE7=wapt wupt
TTITLE8=o nosso amor terminou
TTITLE9=coração aventureiro
TTITLE10=é assim que eu sou
TTITLE11=com meias novas
TTITLE12=vivo a sonhar
TTITLE13=dois apaixonados
TTITLE14=meu pensamento
TTITLE15=me chama que eu vou
TTITLE16=que me namorar?
EXTD=
EXTT0=
EXTT1=
EXTT2=
EXTT3=
EXTT4=
EXTT5=
EXTT6=
EXTT7=
EXTT8=
EXTT9=
EXTT10=
EXTT11=
EXTT12=
EXTT13=
EXTT14=
EXTT15=
EXTT16=
PLAYORDER=
